<?xml version="1.0" encoding="utf-8"?>
<svg xmlns="http://www.w3.org/2000/svg" viewBox="0 0 500 500" xmlns:bx="https://boxy-svg.com">
  <defs>
    <bx:export>
      <bx:file format="svg" href="#object-0"/>
      <bx:file format="svg" href="#object-1" path="Untitled 2.svg"/>
      <bx:file format="svg" href="#object-2" path="Untitled 3.svg"/>
      <bx:file format="svg" href="#object-3" path="Untitled 4.svg"/>
      <bx:file format="svg" href="#object-4" path="Untitled 5.svg"/>
      <bx:file format="svg" href="#object-5" path="Untitled 6.svg"/>
      <bx:file format="svg" href="#object-6" path="Untitled 7.svg"/>
      <bx:file format="svg" href="#object-7" path="Untitled 8.svg"/>
      <bx:file format="svg" href="#object-8" path="Untitled 9.svg"/>
      <bx:file format="svg" href="#object-9" path="Untitled 10.svg"/>
      <bx:file format="svg" href="#object-10" path="Untitled 11.svg"/>
      <bx:file format="svg" href="#object-11" path="Untitled 12.svg"/>
    </bx:export>
  </defs>
  <g transform="matrix(1.884615, 0, 0, 1.884615, -221.153736, -221.153736)" style="">
    <ellipse style="stroke: rgb(34, 26, 65); paint-order: fill; fill-rule: nonzero; fill: rgb(42, 40, 70);" cx="250" cy="250" rx="130" ry="130" id="object-0"/>
    <ellipse style="fill-rule: nonzero; paint-order: fill; stroke: rgb(33, 31, 56); fill: rgb(55, 53, 88); stroke-width: 6px;" cx="250" cy="250.541" rx="105" ry="105" id="object-1"/>
    <path style="fill: rgb(216, 216, 216); fill-opacity: 0; stroke-linecap: round; stroke-width: 10px; stroke: rgb(120, 113, 189);" d="M 137.722 241.905 L 138.09466666666665 237.11266666666668 C 138.46733333333336 232.32033333333334 139.21266666666668 222.73566666666667 143.25933333333333 211.5533333333333 C 147.306 200.371 154.654 187.591 163.81266666666667 176.78183333333334 C 172.97133333333332 165.97266666666667 183.94066666666666 157.13433333333333 193.47216666666668 151.59683333333334 C 203.00366666666665 146.05933333333334 211.09733333333335 143.82266666666666 215.14416666666668 142.70433333333335 L 219.191 141.586" bx:d="M 137.722 241.905 U 139.958 213.151 U 162.002 174.811 U 194.91 148.296 U 219.191 141.586 1@7f3811c6" id="object-2"/>
    <path style="stroke-linecap: round; stroke-width: 10px; fill: rgb(103, 96, 169); fill-opacity: 0; stroke: rgb(103, 96, 169); transform-origin: 308.166px 298.774px;" d="M 271.905 324.334 L 272.81 320.9795 C 273.715 317.625 275.525 310.916 279.41183333333333 303.2481666666667 C 283.29866666666663 295.58033333333333 289.26233333333334 286.95366666666666 296.9301666666667 279.286 C 304.598 271.61833333333334 313.96999999999997 264.9096666666667 323.0756666666667 260.49016666666665 C 332.1813333333333 256.0706666666667 341.02066666666667 253.94033333333334 345.4403333333334 252.87516666666667 L 349.86 251.81" bx:d="M 271.905 324.334 U 277.335 304.207 U 295.226 278.327 U 323.342 258.201 U 349.86 251.81 1@8e8d826e" id="object-3" transform="matrix(-1, 0, 0, -1, 0.000009, 0.000048)"/>
    <ellipse style="stroke: rgb(0, 0, 0); stroke-opacity: 0; stroke-width: 1; fill: rgb(103, 96, 169); transform-origin: 248.949px 221.89px;" cx="248.949" cy="221.89" rx="46.429" ry="41.361" transform="matrix(0.996367, -0.085168, 0.085168, 0.996367, -11.195083, 5.47276)" id="object-4"/>
    <path style="stroke: rgb(0, 0, 0); stroke-opacity: 0; fill: rgb(103, 96, 169);" d="M 279.246 228.216 L 280.2905 234.58416666666665 C 281.335 240.9523333333333 283.424 253.68866666666668 284.5693333333333 261.5316666666667 C 285.7146666666667 269.37466666666666 285.91633333333334 272.3243333333333 279.6383333333333 274.7733333333333 C 273.36033333333336 277.2223333333333 260.60266666666666 279.1706666666667 260.76983333333334 285.91783333333336 C 260.93699999999995 292.665 274.029 304.211 271.8205 307.846 C 269.612 311.481 252.10299999999998 307.205 238.48816666666664 304.6913333333333 C 224.87333333333333 302.17766666666665 215.15266666666665 301.42633333333333 209.68483333333333 300.1803333333333 C 204.21699999999998 298.9343333333333 203.00199999999998 297.1936666666666 204.9221666666667 293.40749999999997 C 206.84233333333336 289.6213333333333 211.89766666666665 283.7896666666667 212.61716666666666 277.03950000000003 C 213.33666666666667 270.28933333333333 209.72033333333334 262.6206666666667 207.9121666666667 258.78633333333335 L 206.104 254.952" bx:d="M 279.246 228.216 U 285.513 266.425 U 286.118 275.274 U 247.845 281.119 U 287.121 315.757 U 234.594 302.929 U 205.432 300.675 U 201.787 295.453 U 216.953 277.958 U 206.104 254.952 1@d5a39f52" id="object-5"/>
    <path style="stroke: rgb(0, 0, 0); stroke-opacity: 0; fill: rgb(103, 96, 169);" d="M 284.271 240.40516666666667 C 285.57133333333337 242.93566666666666 289.08566666666667 244.95933333333335 291.269 246.71666666666667 C 293.45233333333334 248.47400000000002 294.30466666666666 249.965 293.23983333333337 251.40266666666665 C 292.175 252.84033333333332 289.193 254.22466666666665 288.714 256.0348333333333 C 288.235 257.845 290.259 260.081 290.31216666666666 261.8913333333333 C 290.36533333333335 263.70166666666665 288.44766666666663 265.08633333333336 288.28749999999997 265.88533333333334 C 288.1273333333333 266.6843333333333 289.7246666666667 266.8976666666667 289.19216666666665 268.60183333333333 C 288.6596666666667 270.306 285.9973333333333 273.50100000000003 280.9921666666666 275.7373333333333 C 275.987 277.9736666666667 268.63899999999995 279.2513333333333 269.33216666666664 268.72499999999997 C 270.0253333333333 258.19866666666667 278.75966666666665 235.86833333333334 282.6775 227.74683333333334 C 286.5953333333334 219.62533333333332 285.69666666666666 225.71266666666668 284.7905 230.275 C 283.88433333333336 234.83733333333336 282.97066666666666 237.87466666666668 284.271 240.40516666666667" bx:d="M 282.057 240.912 U 292.6 246.983 U 295.157 251.456 U 286.211 255.609 U 292.283 262.317 U 286.53 266.471 U 291.322 267.111 U 283.335 276.696 U 261.291 280.529 U 287.494 213.538 U 284.798 231.8 Z 1@5c02f730" id="object-6"/>
    <path style="stroke: rgb(0, 0, 0); stroke-opacity: 0; fill: rgb(103, 96, 169);" d="M 273.75533333333334 199.14266666666666 C 276.11966666666666 201.24633333333335 278.73633333333333 204.13966666666667 281.08733333333333 207.50016666666667 C 283.43833333333333 210.86066666666667 285.52366666666666 214.6883333333333 285.8011666666667 220.10833333333335 C 286.0786666666666 225.52833333333334 284.54833333333335 232.54066666666665 279.3593333333333 233.22266666666667 C 274.1703333333333 233.90466666666666 265.3226666666667 228.25633333333334 261.36533333333335 223.56583333333336 C 257.408 218.87533333333332 258.341 215.14266666666666 257.0443333333333 208.80949999999999 C 255.74766666666665 202.47633333333332 252.22133333333332 193.5426666666667 253.53683333333333 190.70950000000002 C 254.85233333333335 187.87633333333335 261.00966666666665 191.1436666666667 265.1443333333333 193.43433333333334 C 269.279 195.725 271.391 197.039 273.75533333333334 199.14266666666666" bx:d="M 273.503 198.353 U 281.353 207.033 U 287.609 218.516 U 283.018 239.553 U 256.475 222.608 U 259.274 211.41 U 248.695 184.609 U 267.167 194.411 Z 1@6c85e4ca" id="object-7"/>
    <ellipse style="stroke: rgb(0, 0, 0); stroke-opacity: 0; fill: rgb(41, 39, 62); transform-box: fill-box; transform-origin: 50% 50%;" cx="248.949" cy="221.89" rx="46.429" ry="41.361" transform="matrix(0.996367, -0.085168, 0.085168, 0.996367, -4.978625, 2.499279)" id="object-8"/>
    <path style="stroke: rgb(0, 0, 0); stroke-opacity: 0; fill: rgb(41, 39, 62);" d="M 285.463 225.243 L 286.5075 231.61116666666666 C 287.552 237.97933333333333 289.641 250.71566666666664 292.0108333333333 260.789 C 294.3806666666667 270.8623333333333 297.03133333333335 278.2726666666667 290.27233333333334 280.59049999999996 C 283.5133333333333 282.9083333333333 267.3446666666667 280.13366666666667 265.1065 284.95666666666665 C 262.86833333333334 289.7796666666666 274.5606666666667 302.2003333333333 272.8331666666666 305.9665 C 271.10566666666665 309.73266666666666 255.95833333333334 304.84433333333334 243.52433333333337 302.02450000000005 C 231.09033333333332 299.2046666666667 221.3696666666667 298.4533333333333 215.90183333333331 297.20733333333334 C 210.434 295.96133333333336 209.21899999999997 294.22066666666666 211.13916666666668 290.4345 C 213.05933333333334 286.64833333333337 218.11466666666664 280.81666666666666 218.83416666666665 274.0665 C 219.55366666666666 267.3163333333334 215.93733333333333 259.6476666666667 214.12916666666663 255.81333333333336 L 212.321 251.979" bx:d="M 285.463 225.243 U 291.73 263.452 U 299.682 285.683 U 251.176 277.359 U 286.253 314.621 U 240.811 299.956 U 211.649 297.702 U 208.004 292.48 U 223.17 274.985 U 212.321 251.979 1@9d276c5b" id="object-9"/>
    <path style="stroke: rgb(0, 0, 0); stroke-opacity: 0; fill: rgb(41, 39, 62);" d="M 290.488 237.4321666666667 C 291.78833333333336 239.96266666666665 295.30266666666665 241.9863333333333 297.486 243.74366666666666 C 299.6693333333333 245.50099999999998 300.5216666666667 246.992 299.45683333333335 248.42966666666666 C 298.392 249.86733333333333 295.41 251.25166666666667 294.931 253.06183333333334 C 294.452 254.87199999999999 296.476 257.108 296.52916666666664 258.91833333333335 C 296.58233333333334 260.72866666666664 294.6646666666667 262.1133333333333 294.5045 262.9123333333333 C 294.34433333333334 263.71133333333336 295.94166666666666 263.9246666666666 295.40916666666664 265.6288333333333 C 294.87666666666667 267.333 292.21433333333334 270.528 287.2091666666667 272.76433333333335 C 282.204 275.00066666666663 274.856 276.27833333333336 275.5491666666666 265.752 C 276.2423333333333 255.22566666666663 284.9766666666667 232.8953333333333 288.89450000000005 224.77383333333333 C 292.81233333333336 216.65233333333333 291.91366666666664 222.7396666666667 291.0075 227.30200000000002 C 290.10133333333334 231.86433333333332 289.18766666666664 234.90166666666664 290.488 237.4321666666667" bx:d="M 288.274 237.939 U 298.817 244.01 U 301.374 248.483 U 292.428 252.636 U 298.5 259.344 U 292.747 263.498 U 297.539 264.138 U 289.552 273.723 U 267.508 277.556 U 293.711 210.565 U 291.015 228.827 Z 1@fbe69f6b" id="object-10"/>
    <path style="stroke: rgb(0, 0, 0); stroke-opacity: 0; fill: rgb(41, 39, 62);" d="M 279.9723333333333 196.16966666666667 C 282.33666666666664 198.2733333333333 284.9533333333333 201.16666666666666 287.3043333333333 204.52716666666666 C 289.6553333333333 207.88766666666666 291.74066666666664 211.71533333333332 292.0181666666667 217.1353333333333 C 292.2956666666667 222.55533333333335 290.76533333333333 229.56766666666667 285.57633333333337 230.24966666666668 C 280.38733333333334 230.9316666666667 271.5396666666667 225.28333333333333 267.58233333333334 220.5928333333333 C 263.625 215.90233333333333 264.558 212.16966666666667 263.2613333333333 205.8365 C 261.9646666666667 199.50333333333333 258.43833333333333 190.56966666666668 259.7538333333334 187.73649999999998 C 261.06933333333336 184.90333333333334 267.2266666666667 188.17066666666665 271.36133333333333 190.46133333333333 C 275.49600000000004 192.75199999999998 277.608 194.066 279.9723333333333 196.16966666666667" bx:d="M 279.72 195.38 U 287.57 204.06 U 293.826 215.543 U 289.235 236.58 U 262.692 219.635 U 265.491 208.437 U 254.912 181.636 U 273.384 191.438 Z 1@b9d6fafa" id="object-11"/>
  </g>
</svg>