<?xml version="1.0" encoding="utf-8"?>
<svg xmlns="http://www.w3.org/2000/svg" viewBox="0 0 500 500" xmlns:bx="https://boxy-svg.com">
  <defs>
    <bx:export>
      <bx:file format="svg" href="#object-0"/>
      <bx:file format="svg" href="#object-1" path="Untitled 2.svg"/>
      <bx:file format="svg" href="#object-2" path="Untitled 3.svg"/>
      <bx:file format="svg" href="#object-3" path="Untitled 4.svg"/>
    </bx:export>
  </defs>
  <ellipse style="paint-order: fill; fill-rule: nonzero; stroke-width: 3px; vector-effect: non-scaling-stroke; stroke-linecap: round; fill: rgb(245, 249, 84); stroke: rgb(164, 142, 246);" cx="250" cy="250" rx="245" ry="245" id="object-0"/>
  <ellipse style="fill-rule: nonzero; paint-order: fill; stroke-width: 11.308; fill: rgb(239, 255, 111); stroke: rgb(199, 188, 36);" cx="250" cy="251.02" rx="197.885" ry="197.885" id="object-1"/>
  <path style="fill: rgb(216, 216, 216); fill-opacity: 0; stroke-linecap: round; stroke-width: 18.846; stroke: rgb(250, 253, 185);" d="M 38.399 234.744 L 39.101333333333336 225.71233333333336 C 39.803666666666665 216.68066666666667 41.208333333333336 198.61733333333333 48.834833333333336 177.543 C 56.461333333333336 156.46866666666668 70.30966666666667 132.38333333333333 87.57033333333334 112.01216666666666 C 104.831 91.641 125.504 74.984 143.46716666666666 64.54783333333333 C 161.43033333333332 54.11166666666666 176.68366666666668 49.89633333333333 184.31033333333335 47.788666666666664 L 191.937 45.681" bx:d="M 38.399 234.744 U 42.613 180.554 U 84.158 108.298 U 146.177 58.327 U 191.937 45.681 1@1d6d8769" id="object-2"/>
  <path style="stroke-linecap: round; stroke-width: 18.846; fill-opacity: 0; fill: rgb(167, 168, 95); stroke: rgb(250, 253, 185); transform-origin: 359.62px 341.92px;" d="M 291.282 390.091 L 292.98766666666666 383.769 C 294.6933333333333 377.44699999999995 298.1046666666667 364.80300000000005 305.43 350.3521666666666 C 312.75533333333334 335.9013333333333 323.99466666666666 319.64366666666666 338.4455 305.1931666666667 C 352.8963333333333 290.7426666666667 370.5586666666666 278.09933333333333 387.7193333333333 269.7701666666667 C 404.87999999999994 261.44100000000003 421.539 257.426 429.8685 255.4185 L 438.198 253.411" bx:d="M 291.282 390.091 U 301.516 352.159 U 335.234 303.386 U 388.221 265.456 U 438.198 253.411 1@d16c9197" id="object-3" transform="matrix(-1, 0, 0, -1, 0.000031, -0.000023)"/>
  <ellipse style="stroke: rgb(0, 0, 0); stroke-width: 0px; transform-origin: 293.98px 242.106px; fill: rgb(199, 188, 36);" cx="261.292" cy="305.23" rx="86.943" ry="82.693" transform="matrix(0.949045, -0.315141, 0.393112, 0.923154, -46.096342, -0.485248)"/>
  <path style="stroke: rgb(0, 0, 0); stroke-width: 0px; transform-origin: 247.883px 241.621px; fill: rgb(199, 188, 36);" d="M 135.81616666666665 291.5025 C 133.92033333333333 273.994 130.12866666666665 238.977 132.136 216.33850000000004 C 134.14333333333335 193.70000000000002 141.94966666666667 183.44000000000003 145.96433333333334 188.01216666666667 C 149.979 192.58433333333335 150.202 211.98866666666666 153.97299999999998 227.28866666666667 C 157.744 242.58866666666668 165.06300000000002 253.78433333333336 162.94416666666666 266.72066666666666 C 160.82533333333333 279.657 149.26866666666666 294.334 143.49033333333333 301.6725 C 137.712 309.011 137.712 309.011 137.712 309.011 C 137.712 309.011 137.712 309.011 135.81616666666665 291.5025" bx:d="M 137.712 309.011 U 126.337 203.96 U 149.756 173.18 U 150.425 231.393 U 172.382 264.98 U 137.712 309.011 U 137.712 309.011 Z 1@c513d457" transform="matrix(0.966822, -0.255452, 0.255452, 0.966822, 0.000003, -0.000007)"/>
  <path style="stroke: rgb(0, 0, 0); stroke-width: 0px; transform-origin: 247.883px 241.621px; fill: rgb(199, 188, 36);" d="M 293.729 270.7595 C 297.186 264.626 304.09999999999997 252.359 316.5901666666667 242.54533333333333 C 329.08033333333333 232.73166666666668 347.1466666666667 225.37133333333335 358.266 228.57083333333333 C 369.38533333333334 231.7703333333333 373.55766666666665 245.52966666666666 366.939 257.4205 C 360.32033333333334 269.3113333333333 342.91066666666666 279.33366666666666 327.7985 300.16366666666664 C 312.6863333333333 320.9936666666667 299.87166666666667 352.6313333333333 294.00016666666664 350.5541666666666 C 288.1286666666667 348.47700000000003 289.20033333333333 312.685 289.73616666666663 294.789 C 290.272 276.893 290.272 276.893 290.272 276.893 C 290.272 276.893 290.272 276.893 293.729 270.7595" bx:d="M 290.272 276.893 U 311.014 240.092 U 365.213 218.011 U 377.73 259.289 U 325.501 289.356 U 287.057 384.269 U 290.272 276.893 U 290.272 276.893 Z 1@8d34264f" transform="matrix(0.966822, -0.255452, 0.255452, 0.966822, 0.000003, -0.000007)"/>
  <path style="stroke: rgb(0, 0, 0); transform-origin: 247.883px 241.621px; stroke-width: 0px; fill: rgb(199, 188, 36);" d="M 283.1343333333333 268.7525 C 284.6956666666667 257.935 287.8183333333333 236.29999999999998 295.9593333333333 214.88816666666665 C 304.1003333333333 193.47633333333332 317.25966666666665 172.28766666666664 323.2816666666667 156.34033333333332 C 329.30366666666663 140.393 328.18833333333333 129.68699999999998 322.7238333333333 121.54599999999999 C 317.25933333333336 113.40499999999999 307.4456666666667 107.829 300.64300000000003 113.85116666666666 C 293.8403333333333 119.87333333333333 290.04866666666663 137.49366666666666 283.692 157.12116666666668 C 277.3353333333334 176.74866666666665 268.41366666666664 198.38333333333333 261.27633333333335 216.561 C 254.139 234.73866666666666 248.78599999999997 249.45933333333335 252.46616666666668 259.38466666666665 C 256.1463333333333 269.31 268.85966666666667 274.44 275.2163333333333 277.005 C 281.573 279.57 281.573 279.57 281.5729999999999 279.57 C 281.573 279.57 281.573 279.57 283.1343333333333 268.7525" bx:d="M 281.573 279.57 U 290.941 214.665 U 330.419 151.099 U 327.073 118.981 U 297.632 102.253 U 286.257 155.114 U 259.492 220.018 U 243.433 264.18 U 281.573 279.57 U 281.573 279.57 Z 1@a175070e" transform="matrix(0.966822, -0.255452, 0.255452, 0.966822, 0.000003, -0.000007)"/>
  <path style="stroke: rgb(0, 0, 0); stroke-width: 0px; transform-origin: 247.883px 241.621px; fill: rgb(199, 188, 36);" d="M 248.9505 234.36566666666667 C 253.33966666666666 221.26166666666666 256.75033333333334 200.56633333333335 259.3478333333333 180.51649999999998 C 261.94533333333334 160.46666666666667 263.7296666666667 141.06233333333333 263.9526666666667 125.4495 C 264.1756666666667 109.83666666666666 262.83733333333333 98.01533333333333 257.70750000000004 92.66233333333334 C 252.5776666666667 87.30933333333333 243.65633333333335 88.42466666666667 237.63433333333333 96.67716666666668 C 231.61233333333334 104.92966666666666 228.4896666666667 120.31933333333335 226.14766666666665 135.5975 C 223.80566666666664 150.87566666666666 222.24433333333332 166.04233333333335 218.206 185.00166666666667 C 214.16766666666663 203.961 207.65233333333333 226.713 208.31966666666668 239.59399999999997 C 208.987 252.475 216.837 255.485 222.28516666666667 256.99 C 227.73333333333335 258.495 230.77966666666666 258.495 234.98666666666668 255.73866666666663 C 239.19366666666667 252.98233333333334 244.56133333333332 247.46966666666665 248.9505 234.36566666666667" bx:d="M 249.929 241.957 U 260.161 179.871 U 265.514 121.658 U 261.499 86.194 U 234.735 89.54 U 225.367 135.709 U 220.683 181.209 U 201.137 249.465 U 224.687 258.495 U 233.826 258.495 Z 1@0657e1c2" transform="matrix(0.966822, -0.255452, 0.255452, 0.966822, 0.000003, -0.000007)"/>
  <path style="stroke: rgb(0, 0, 0); stroke-width: 0px; transform-origin: 247.883px 241.621px; fill: rgb(199, 188, 36);" d="M 168.2686666666667 244.21833333333333 C 167.82266666666666 235.40833333333333 165.81533333333334 220.0186666666667 165.03466666666665 202.73299999999998 C 164.254 185.44733333333332 164.7 166.26566666666668 166.93033333333332 151.8795 C 169.16066666666666 137.49333333333334 173.17533333333333 127.90266666666666 179.0858333333333 121.99216666666666 C 184.99633333333335 116.08166666666666 192.80266666666668 113.85133333333333 197.2635 116.19333333333333 C 201.72433333333333 118.53533333333333 202.83966666666666 125.44966666666666 202.5051666666667 134.14816666666667 C 202.17066666666668 142.84666666666666 200.38633333333334 153.32933333333335 199.82866666666666 165.485 C 199.271 177.64066666666668 199.94000000000003 191.46933333333334 201.50133333333335 205.29783333333333 C 203.06266666666667 219.12633333333335 205.51633333333334 232.95466666666667 202.84 243.54899999999998 C 200.16366666666667 254.14333333333332 192.35733333333334 261.5036666666667 185.44299999999998 263.28799999999995 C 178.52866666666668 265.0723333333333 172.50633333333334 261.2806666666666 170.05283333333335 258.26966666666664 C 167.59933333333333 255.25866666666664 168.71466666666666 253.02833333333334 168.2686666666667 244.21833333333333" bx:d="M 169.83 250.798 U 163.808 204.629 U 165.146 147.084 U 177.19 118.312 U 200.609 111.621 U 203.955 132.364 U 198.602 163.812 U 200.609 205.298 U 207.97 246.783 U 184.551 268.864 U 166.484 257.489 Z 1@3146c7d1" transform="matrix(0.966822, -0.255452, 0.255452, 0.966822, 0.000003, -0.000007)"/>
  <ellipse style="stroke: rgb(0, 0, 0); stroke-width: 0; transform-origin: 293.98px 242.106px; fill: rgb(252, 239, 43);" cx="261.292" cy="305.23" rx="86.943" ry="82.693" transform="matrix(0.949045, -0.315141, 0.393112, 0.923154, -36.758375, -3.820041)"/>
  <path style="stroke: rgb(0, 0, 0); stroke-width: 0; transform-origin: 257.221px 238.286px; fill: rgb(252, 239, 43);" d="M 145.15416666666667 288.16749999999996 C 143.25833333333335 270.659 139.46666666666667 235.64199999999997 141.47400000000002 213.0035 C 143.48133333333334 190.365 151.28766666666667 180.10500000000002 155.30233333333334 184.6771666666667 C 159.317 189.24933333333334 159.54 208.65366666666668 163.311 223.95366666666666 C 167.082 239.25366666666665 174.40099999999998 250.44933333333333 172.28216666666665 263.3856666666666 C 170.16333333333333 276.32199999999995 158.60666666666668 290.99899999999997 152.82833333333335 298.3375 C 147.05 305.676 147.05 305.676 147.04999999999998 305.676 C 147.05 305.676 147.05 305.676 145.15416666666667 288.16749999999996" bx:d="M 147.05 305.676 U 135.675 200.625 U 159.094 169.845 U 159.763 228.058 U 181.72 261.645 U 147.05 305.676 U 147.05 305.676 Z 1@0cacd240" transform="matrix(0.966822, -0.255452, 0.255452, 0.966822, 0, -0.000008)"/>
  <path style="stroke: rgb(0, 0, 0); stroke-width: 0; transform-origin: 257.221px 238.286px; fill: rgb(252, 239, 43);" d="M 303.067 267.4245 C 306.524 261.291 313.438 249.024 325.92816666666664 239.21033333333332 C 338.4183333333333 229.39666666666668 356.48466666666667 222.03633333333332 367.604 225.23583333333332 C 378.72333333333336 228.43533333333335 382.8956666666666 242.19466666666668 376.277 254.0855 C 369.6583333333333 265.97633333333334 352.2486666666667 275.9986666666667 337.1365 296.82866666666666 C 322.02433333333335 317.6586666666667 309.20966666666664 349.2963333333334 303.33816666666667 347.2191666666667 C 297.46666666666664 345.142 298.53833333333336 309.34999999999997 299.0741666666667 291.454 C 299.61 273.558 299.61 273.558 299.61000000000007 273.558 C 299.61 273.558 299.61 273.558 303.067 267.4245" bx:d="M 299.61 273.558 U 320.352 236.757 U 374.551 214.676 U 387.068 255.954 U 334.839 286.021 U 296.395 380.934 U 299.61 273.558 U 299.61 273.558 Z 1@8b06302f" transform="matrix(0.966822, -0.255452, 0.255452, 0.966822, 0, -0.000008)"/>
  <path style="stroke: rgb(0, 0, 0); stroke-width: 0; transform-origin: 257.221px 238.286px; fill: rgb(252, 239, 43);" d="M 292.4723333333333 265.4175 C 294.03366666666665 254.60000000000002 297.15633333333335 232.965 305.29733333333337 211.55316666666667 C 313.43833333333333 190.14133333333334 326.59766666666667 168.9526666666667 332.61966666666666 153.00533333333334 C 338.64166666666665 137.05800000000002 337.5263333333333 126.35200000000002 332.06183333333337 118.211 C 326.5973333333333 110.07000000000001 316.7836666666667 104.49400000000001 309.98100000000005 110.51616666666666 C 303.17833333333334 116.53833333333334 299.3866666666667 134.15866666666668 293.03000000000003 153.78616666666667 C 286.67333333333335 173.41366666666667 277.75166666666667 195.04833333333332 270.6143333333333 213.226 C 263.477 231.40366666666668 258.12399999999997 246.12433333333334 261.8041666666667 256.0496666666667 C 265.4843333333333 265.975 278.19766666666663 271.105 284.5543333333333 273.67 C 290.911 276.235 290.911 276.235 290.911 276.23500000000007 C 290.911 276.235 290.911 276.235 292.4723333333333 265.4175" bx:d="M 290.911 276.235 U 300.279 211.33 U 339.757 147.764 U 336.411 115.646 U 306.97 98.918 U 295.595 151.779 U 268.83 216.683 U 252.771 260.845 U 290.911 276.235 U 290.911 276.235 Z 1@a4fb0484" transform="matrix(0.966822, -0.255452, 0.255452, 0.966822, 0, -0.000008)"/>
  <path style="stroke: rgb(0, 0, 0); stroke-width: 0; transform-origin: 257.221px 238.286px; fill: rgb(252, 239, 43);" d="M 258.2885 231.0306666666667 C 262.67766666666665 217.92666666666665 266.08833333333337 197.2313333333333 268.6858333333334 177.18150000000003 C 271.28333333333336 157.13166666666666 273.06766666666664 137.72733333333335 273.29066666666665 122.1145 C 273.51366666666667 106.50166666666667 272.1753333333333 94.68033333333334 267.0455 89.32733333333333 C 261.91566666666665 83.97433333333333 252.99433333333332 85.08966666666667 246.9723333333333 93.34216666666667 C 240.95033333333333 101.59466666666667 237.8276666666667 116.98433333333332 235.48566666666667 132.26250000000002 C 233.1436666666667 147.54066666666665 231.5823333333333 162.7073333333333 227.54399999999998 181.66666666666666 C 223.50566666666666 200.62599999999998 216.99033333333333 223.37800000000001 217.6576666666667 236.25900000000001 C 218.32500000000002 249.14 226.17499999999998 252.15 231.62316666666666 253.655 C 237.0713333333333 255.16 240.11766666666665 255.16 244.32466666666667 252.40366666666668 C 248.53166666666667 249.64733333333334 253.89933333333332 244.13466666666667 258.2885 231.0306666666667" bx:d="M 259.267 238.622 U 269.499 176.536 U 274.852 118.323 U 270.837 82.859 U 244.073 86.205 U 234.705 132.374 U 230.021 177.874 U 210.475 246.13 U 234.025 255.16 U 243.164 255.16 Z 1@77146ce0" transform="matrix(0.966822, -0.255452, 0.255452, 0.966822, 0, -0.000008)"/>
  <path style="stroke: rgb(0, 0, 0); stroke-width: 0; transform-origin: 257.221px 238.286px; fill: rgb(252, 239, 43);" d="M 177.60666666666668 240.88333333333333 C 177.16066666666666 232.07333333333335 175.15333333333334 216.68366666666668 174.37266666666665 199.39800000000002 C 173.59199999999998 182.11233333333334 174.038 162.93066666666667 176.26833333333332 148.5445 C 178.49866666666665 134.15833333333333 182.51333333333332 124.56766666666665 188.42383333333336 118.65716666666667 C 194.33433333333332 112.74666666666667 202.14066666666668 110.51633333333332 206.6015 112.85833333333333 C 211.06233333333333 115.20033333333333 212.17766666666668 122.11466666666666 211.8431666666667 130.81316666666666 C 211.5086666666667 139.51166666666666 209.72433333333333 149.99433333333334 209.16666666666666 162.15 C 208.609 174.30566666666667 209.27800000000002 188.13433333333333 210.83933333333334 201.96283333333335 C 212.40066666666667 215.79133333333334 214.85433333333333 229.6196666666667 212.17800000000003 240.21400000000003 C 209.50166666666667 250.8083333333333 201.69533333333334 258.16866666666664 194.78100000000003 259.95300000000003 C 187.86666666666667 261.7373333333333 181.84433333333334 257.9456666666667 179.39083333333335 254.93466666666666 C 176.93733333333333 251.92366666666666 178.05266666666668 249.6933333333333 177.60666666666668 240.88333333333333" bx:d="M 179.168 247.463 U 173.146 201.294 U 174.484 143.749 U 186.528 114.977 U 209.947 108.286 U 213.293 129.029 U 207.94 160.477 U 209.947 201.963 U 217.308 243.448 U 193.889 265.529 U 175.822 254.154 Z 1@b50788f0" transform="matrix(0.966822, -0.255452, 0.255452, 0.966822, 0, -0.000008)"/>
</svg>