<?xml version="1.0" encoding="utf-8"?>
<svg xmlns="http://www.w3.org/2000/svg" viewBox="0 0 500 500" xmlns:bx="https://boxy-svg.com">
  <defs>
    <bx:export>
      <bx:file format="svg" href="#object-0"/>
      <bx:file format="svg" href="#object-1" path="Untitled 2.svg"/>
      <bx:file format="svg" href="#object-2" path="Untitled 3.svg"/>
      <bx:file format="svg" href="#object-3" path="Untitled 4.svg"/>
    </bx:export>
  </defs>
  <ellipse style="paint-order: fill; fill-rule: nonzero; stroke-width: 3px; vector-effect: non-scaling-stroke; stroke-linecap: round; stroke: rgb(164, 142, 246); fill: rgb(249, 84, 84);" cx="250" cy="250" rx="245" ry="245" id="object-0"/>
  <ellipse style="fill-rule: nonzero; paint-order: fill; stroke-width: 11.308; fill: rgb(255, 111, 111); stroke: rgb(199, 36, 36);" cx="250" cy="251.02" rx="197.885" ry="197.885" id="object-1"/>
  <path style="fill: rgb(216, 216, 216); fill-opacity: 0; stroke-linecap: round; stroke-width: 18.846; stroke: rgb(253, 185, 185);" d="M 38.399 234.744 L 39.101333333333336 225.71233333333336 C 39.803666666666665 216.68066666666667 41.208333333333336 198.61733333333333 48.834833333333336 177.543 C 56.461333333333336 156.46866666666668 70.30966666666667 132.38333333333333 87.57033333333334 112.01216666666666 C 104.831 91.641 125.504 74.984 143.46716666666666 64.54783333333333 C 161.43033333333332 54.11166666666666 176.68366666666668 49.89633333333333 184.31033333333335 47.788666666666664 L 191.937 45.681" bx:d="M 38.399 234.744 U 42.613 180.554 U 84.158 108.298 U 146.177 58.327 U 191.937 45.681 1@1d6d8769" id="object-2"/>
  <path style="stroke-linecap: round; stroke-width: 18.846; fill-opacity: 0; fill: rgb(167, 168, 95); transform-origin: 359.62px 341.92px; stroke: rgb(253, 185, 185);" d="M 291.282 390.091 L 292.98766666666666 383.769 C 294.6933333333333 377.44699999999995 298.1046666666667 364.80300000000005 305.43 350.3521666666666 C 312.75533333333334 335.9013333333333 323.99466666666666 319.64366666666666 338.4455 305.1931666666667 C 352.8963333333333 290.7426666666667 370.5586666666666 278.09933333333333 387.7193333333333 269.7701666666667 C 404.87999999999994 261.44100000000003 421.539 257.426 429.8685 255.4185 L 438.198 253.411" bx:d="M 291.282 390.091 U 301.516 352.159 U 335.234 303.386 U 388.221 265.456 U 438.198 253.411 1@d16c9197" id="object-3" transform="matrix(-1, 0, 0, -1, 0.000031, -0.000023)"/>
  <ellipse style="stroke: rgb(0, 0, 0); stroke-width: 0; fill: rgb(171, 25, 25); transform-origin: 297.107px 234.446px;" cx="261.292" cy="305.23" rx="95.263" ry="92.728" transform="matrix(0.948398, -0.317081, 0.390707, 0.923783, -48.489946, -36.689238)"/>
  <path style="stroke-width: 0; stroke: rgb(199, 36, 36); fill: rgb(171, 25, 25);" d="M 137.55133333333336 241.99433333333332 C 137.82133333333334 234.92166666666665 137.83766666666668 228.94533333333334 139.30966666666666 223.5438333333333 C 140.78166666666667 218.14233333333334 143.70933333333335 213.31566666666666 150.1025 222.64733333333334 C 156.49566666666666 231.979 166.35433333333333 255.46900000000002 180.41666666666666 268.95416666666665 C 194.479 282.4393333333333 212.745 285.91966666666667 210.59650000000002 295.71616666666665 C 208.448 305.5126666666667 185.885 321.62533333333334 170.08883333333333 317.6261666666666 C 154.2926666666667 313.627 145.26333333333335 289.516 141.0105 273.376 C 136.75766666666667 257.236 137.28133333333335 249.067 137.55133333333336 241.99433333333332" bx:d="M 137.805 240.898 U 137.854 222.969 U 146.637 208.489 U 176.213 278.959 U 231.011 289.4 U 163.322 337.738 U 136.234 265.405 Z 1@c9e26fe6"/>
  <path style="stroke: rgb(255, 111, 111); transform-origin: 235.74px 192.677px; fill: rgb(171, 25, 25); stroke-width: 0px;" d="M 156.49116666666666 259.37083333333334 C 147.958 250.4426666666667 137.742 233.08833333333337 138.907 221.44533333333337 C 140.072 209.80233333333334 152.618 203.87066666666666 159.22583333333333 204.08766666666668 C 165.83366666666666 204.30466666666666 166.50333333333333 210.67033333333333 169.35083333333333 217.461 C 172.19833333333335 224.25166666666667 177.22366666666667 231.46733333333336 181.82683333333333 239.61416666666665 C 186.42999999999998 247.76099999999997 190.611 256.839 190.02366666666668 261.94233333333335 C 189.43633333333332 267.04566666666665 184.08066666666664 268.1743333333333 177.97766666666666 268.48766666666666 C 171.87466666666668 268.801 165.02433333333332 268.29900000000004 156.49116666666666 259.37083333333334" bx:d="M 158.174 267.797 U 127.526 215.734 U 165.164 197.939 U 167.173 217.036 U 182.249 238.683 U 194.792 265.917 U 178.725 269.303 Z 1@d782f7c7"/>
  <path style="stroke: rgb(255, 111, 111); fill: rgb(171, 25, 25); stroke-width: 0px;" d="M 216.59666666666666 261.96566666666666 C 220.333 253.37566666666666 219.835 236.94833333333335 217.03283333333331 223.46783333333335 C 214.23066666666668 209.98733333333334 209.12433333333334 199.45366666666666 203.27066666666667 188.98283333333333 C 197.417 178.51199999999997 190.816 168.104 182.34683333333336 167.72799999999998 C 173.87766666666667 167.352 163.54033333333334 177.008 161.29850000000002 188.67033333333333 C 159.05666666666667 200.33266666666665 164.91033333333334 214.0013333333333 169.26933333333332 224.28416666666666 C 173.62833333333333 234.567 176.49266666666668 241.46399999999997 180.85183333333336 248.86249999999998 C 185.211 256.26099999999997 191.06500000000003 264.161 197.97733333333335 267.73466666666667 C 204.88966666666667 271.30833333333334 212.86033333333333 270.55566666666664 216.59666666666666 261.96566666666666" bx:d="M 220.831 269.803 U 219.337 220.521 U 204.018 188.92 U 184.215 157.696 U 153.203 186.664 U 170.764 227.67 U 179.357 248.361 U 196.919 272.061 Z 1@487da25f"/>
  <path style="stroke: rgb(255, 111, 111); fill: rgb(171, 25, 25); stroke-width: 1;" d="M 248.4811666666667 250.13633333333334 C 253.46333333333334 240.04166666666666 254.3356666666667 220.10333333333332 254.64700000000002 205.30633333333333 C 254.95833333333334 190.50933333333333 254.70866666666666 180.85366666666667 252.65366666666668 172.70266666666666 C 250.59866666666667 164.55166666666665 246.73833333333332 157.90533333333335 239.577 154.39399999999998 C 232.41566666666665 150.88266666666667 221.95333333333335 150.50633333333334 214.60483333333335 153.01416666666668 C 207.25633333333334 155.52200000000002 203.02166666666668 160.91400000000002 202.46116666666668 172.7645 C 201.90066666666667 184.615 205.01433333333333 202.924 208.0035 215.27583333333334 C 210.99266666666665 227.62766666666667 213.85733333333334 234.02233333333334 216.72183333333336 240.60566666666668 C 219.58633333333333 247.189 222.45066666666665 253.961 228.4288333333333 257.2215 C 234.407 260.482 243.49900000000002 260.231 248.4811666666667 250.13633333333334" bx:d="M 252.591 259.98 U 255.208 200.165 U 254.459 171.198 U 242.878 151.259 U 211.491 150.13 U 198.787 166.306 U 208.128 221.233 U 216.722 240.417 U 225.315 260.733 Z 1@04d925b4"/>
  <path style="stroke: rgb(255, 111, 111); fill: rgb(171, 25, 25); stroke-width: 1;" d="M 278.62283333333335 252.07966666666667 C 284.60100000000006 246.93833333333336 288.96000000000004 235.02566666666667 292.13616666666667 224.1788333333333 C 295.31233333333336 213.332 297.30566666666664 203.55100000000002 298.36449999999996 193.958 C 299.42333333333335 184.365 299.54766666666666 174.96 294.44100000000003 167.81216666666668 C 289.33433333333335 160.66433333333336 278.99666666666667 155.77366666666668 271.5858333333333 155.52283333333332 C 264.175 155.27200000000002 259.691 159.66100000000003 257.6358333333333 166.62066666666666 C 255.58066666666664 173.58033333333333 255.95433333333332 183.11066666666667 255.08249999999998 192.64083333333335 C 254.21066666666664 202.17099999999996 252.09333333333333 211.701 252.28033333333335 221.92100000000002 C 252.46733333333336 232.141 254.95866666666666 243.05100000000002 260.003 249.321 C 265.04733333333337 255.591 272.64466666666664 257.221 278.62283333333335 252.07966666666667" bx:d="M 280.242 258.851 U 293.319 223.113 U 299.299 193.77 U 299.672 165.555 U 268.659 150.883 U 255.207 164.05 U 256.328 192.641 U 249.976 221.231 U 257.45 253.961 Z 1@ac31dfd7"/>
  <path style="stroke: rgb(255, 111, 111); fill: rgb(171, 25, 25); stroke-width: 1;" d="M 310.08816666666667 187.87850000000003 C 318.536 189.95166666666668 325.36699999999996 197.30533333333332 334.6783333333333 205.11066666666667 C 343.98966666666666 212.91600000000003 355.78133333333335 221.173 358.4763333333333 230.05433333333335 C 361.1713333333333 238.93566666666666 354.76966666666664 248.44133333333335 350.40616666666665 260.5303333333333 C 346.04266666666666 272.6193333333333 343.71733333333333 287.2916666666667 339.73766666666666 297.8041666666666 C 335.758 308.31666666666666 330.124 314.6693333333333 318.41433333333333 310.14166666666665 C 306.7046666666667 305.614 288.9193333333333 290.20599999999996 285.1 276.02299999999997 C 281.2806666666667 261.84 291.42733333333337 248.88199999999998 295.55 239.98933333333335 C 299.67266666666666 231.09666666666666 297.77133333333336 226.26933333333332 291.7091666666667 225.05566666666667 C 285.647 223.842 275.42400000000004 226.242 266.62716666666665 225.2345 C 257.83033333333333 224.227 250.45966666666666 219.81199999999998 248.077 214.404 C 245.69433333333333 208.99599999999998 248.29966666666667 202.595 254.70333333333335 198.73216666666667 C 261.107 194.86933333333332 271.309 193.54466666666667 281.44233333333335 191.27866666666668 C 291.5756666666667 189.01266666666666 301.64033333333333 185.80533333333335 310.08816666666667 187.87850000000003" bx:d="M 311.705 182.598 U 332.198 204.659 U 367.573 229.43 U 348.368 257.947 U 341.392 301.964 U 324.49 321.022 U 271.134 274.798 U 301.574 235.924 U 295.87 221.442 U 265.201 228.642 U 243.089 215.397 U 250.905 196.194 U 281.511 192.22 Z 1@084fe0e0"/>
  <path style="stroke-width: 0; stroke: rgb(199, 36, 36); fill: rgb(171, 25, 25);" d="M 263.73066666666665 264.62466666666666 C 270.723 259.96233333333333 284.18399999999997 258.8066666666667 289.0613333333333 262.91383333333334 C 293.9386666666667 267.021 290.2323333333333 276.391 298.252 276.99783333333335 C 306.2716666666667 277.6046666666667 326.0173333333333 269.4483333333333 334.8395 274.7706666666666 C 343.66166666666663 280.093 341.56033333333335 298.894 331.063 315.0271666666667 C 320.5656666666667 331.1603333333333 301.67233333333337 344.62566666666663 287.711 339.28066666666666 C 273.74966666666666 333.9356666666667 264.7203333333334 309.7803333333333 260.46750000000003 293.61816666666664 C 256.2146666666667 277.45599999999996 256.73833333333334 269.287 263.73066666666665 264.62466666666666" bx:d="M 257.262 261.118 U 297.645 257.651 U 286.526 285.761 U 345.763 261.292 U 339.459 317.695 U 282.779 358.091 U 255.691 285.625 Z 1@a1d3a00c"/>
  <g transform="matrix(1, 0, 0, 1, 7.847302, 1.481323)">
    <ellipse style="stroke: rgb(0, 0, 0); stroke-width: 0px; fill: rgb(199, 36, 36); transform-origin: 297.107px 234.446px;" cx="261.292" cy="305.23" rx="95.263" ry="92.728" transform="matrix(0.948398, -0.317081, 0.390707, 0.923783, -45.895372, -38.720153)"/>
    <path style="stroke-width: 0px; stroke: rgb(199, 36, 36); fill: rgb(199, 36, 36);" d="M 140.14633333333336 239.96333333333337 C 140.41633333333334 232.89066666666668 140.43266666666668 226.9143333333333 141.90466666666666 221.51283333333333 C 143.37666666666667 216.1113333333333 146.30433333333335 211.28466666666668 152.6975 220.6163333333333 C 159.09066666666666 229.948 168.94933333333333 253.438 183.01166666666666 266.9231666666667 C 197.07399999999998 280.40833333333336 215.34 283.88866666666667 213.1915 293.68516666666665 C 211.043 303.4816666666667 188.48000000000002 319.59433333333334 172.68383333333335 315.59516666666667 C 156.88766666666666 311.596 147.85833333333335 287.485 143.6055 271.34499999999997 C 139.35266666666666 255.205 139.87633333333335 247.03599999999997 140.14633333333336 239.96333333333337" bx:d="M 140.4 238.867 U 140.449 220.938 U 149.232 206.458 U 178.808 276.928 U 233.606 287.369 U 165.917 335.707 U 138.829 263.374 Z 1@8715d2e5"/>
    <path style="fill: rgb(199, 36, 36); stroke: rgb(255, 111, 111); transform-origin: 238.335px 190.646px;" d="M 159.08616666666666 257.33983333333333 C 150.553 248.41166666666666 140.33700000000002 231.05733333333333 141.502 219.4143333333333 C 142.667 207.77133333333333 155.213 201.83966666666666 161.82083333333333 202.05666666666664 C 168.42866666666666 202.27366666666663 169.09833333333333 208.63933333333333 171.94583333333333 215.42999999999998 C 174.79333333333332 222.2206666666667 179.81866666666667 229.43633333333332 184.42183333333332 237.58316666666664 C 189.025 245.73000000000002 193.206 254.808 192.61866666666666 259.91133333333335 C 192.03133333333335 265.0146666666667 186.67566666666667 266.1433333333334 180.57266666666666 266.45666666666665 C 174.46966666666665 266.77 167.61933333333334 266.26800000000003 159.08616666666666 257.33983333333333" bx:d="M 160.769 265.766 U 130.121 213.703 U 167.759 195.908 U 169.768 215.005 U 184.844 236.652 U 197.387 263.886 U 181.32 267.272 Z 1@243818b0"/>
    <path style="fill: rgb(199, 36, 36); stroke: rgb(255, 111, 111);" d="M 219.19166666666663 259.93466666666666 C 222.928 251.34466666666665 222.42999999999998 234.91733333333332 219.62783333333334 221.43683333333334 C 216.82566666666665 207.95633333333333 211.71933333333334 197.4226666666667 205.86566666666667 186.95183333333333 C 200.01200000000003 176.481 193.41099999999997 166.073 184.94183333333334 165.697 C 176.47266666666667 165.321 166.13533333333334 174.977 163.8935 186.63933333333333 C 161.65166666666667 198.30166666666665 167.50533333333334 211.97033333333334 171.86433333333335 222.25316666666666 C 176.22333333333336 232.53600000000003 179.08766666666668 239.433 183.44683333333333 246.8315 C 187.806 254.23000000000002 193.66 262.13 200.57233333333332 265.7036666666666 C 207.48466666666664 269.2773333333333 215.45533333333333 268.52466666666663 219.19166666666663 259.93466666666666" bx:d="M 223.426 267.772 U 221.932 218.49 U 206.613 186.889 U 186.81 155.665 U 155.798 184.633 U 173.359 225.639 U 181.952 246.33 U 199.514 270.03 Z 1@e3c03d78"/>
    <path style="fill: rgb(199, 36, 36); stroke: rgb(255, 111, 111);" d="M 251.07616666666664 248.10533333333333 C 256.05833333333334 238.01066666666668 256.9306666666667 218.07233333333332 257.24199999999996 203.2753333333333 C 257.55333333333334 188.47833333333332 257.30366666666663 178.82266666666666 255.24866666666662 170.67166666666665 C 253.19366666666664 162.52066666666667 249.33333333333334 155.87433333333334 242.172 152.36300000000003 C 235.01066666666668 148.85166666666666 224.54833333333332 148.47533333333334 217.19983333333334 150.98316666666668 C 209.85133333333337 153.49099999999999 205.61666666666667 158.883 205.05616666666666 170.73350000000002 C 204.4956666666667 182.58399999999997 207.60933333333332 200.893 210.59850000000003 213.24483333333333 C 213.58766666666668 225.59666666666666 216.4523333333333 231.9913333333333 219.31683333333334 238.57466666666667 C 222.18133333333333 245.158 225.04566666666665 251.92999999999998 231.0238333333333 255.19050000000001 C 237.00199999999998 258.451 246.09400000000002 258.2 251.07616666666664 248.10533333333333" bx:d="M 255.186 257.949 U 257.803 198.134 U 257.054 169.167 U 245.473 149.228 U 214.086 148.099 U 201.382 164.275 U 210.723 219.202 U 219.317 238.386 U 227.91 258.702 Z 1@170e5485"/>
    <path style="fill: rgb(199, 36, 36); stroke: rgb(255, 111, 111);" d="M 281.2178333333333 250.04866666666666 C 287.19599999999997 244.90733333333333 291.555 232.99466666666663 294.73116666666664 222.14783333333332 C 297.9073333333333 211.30100000000002 299.90066666666667 201.51999999999998 300.9595 191.927 C 302.0183333333334 182.33399999999997 302.1426666666667 172.929 297.036 165.78116666666668 C 291.9293333333333 158.63333333333333 281.5916666666667 153.74266666666668 274.18083333333334 153.49183333333335 C 266.77000000000004 153.241 262.286 157.63 260.23083333333335 164.58966666666666 C 258.1756666666667 171.54933333333335 258.5493333333333 181.07966666666667 257.6775 190.60983333333334 C 256.8056666666667 200.14000000000001 254.68833333333336 209.67 254.87533333333332 219.89 C 255.06233333333333 230.10999999999999 257.5536666666667 241.01999999999998 262.598 247.29 C 267.64233333333334 253.56000000000003 275.23966666666666 255.18999999999997 281.2178333333333 250.04866666666666" bx:d="M 282.837 256.82 U 295.914 221.082 U 301.894 191.739 U 302.267 163.524 U 271.254 148.852 U 257.802 162.019 U 258.923 190.61 U 252.571 219.2 U 260.045 251.93 Z 1@47b28ab5"/>
    <path style="fill: rgb(199, 36, 36); stroke: rgb(255, 111, 111);" d="M 312.6831666666667 185.8475 C 321.13100000000003 187.92066666666665 327.962 195.27433333333332 337.2733333333333 203.07966666666667 C 346.58466666666664 210.885 358.3763333333333 219.14199999999997 361.07133333333337 228.0233333333333 C 363.7663333333333 236.90466666666666 357.36466666666666 246.41033333333334 353.0011666666667 258.49933333333337 C 348.6376666666667 270.5883333333333 346.31233333333336 285.2606666666666 342.3326666666667 295.77316666666667 C 338.353 306.28566666666666 332.719 312.6383333333333 321.00933333333336 308.11066666666665 C 309.2996666666666 303.583 291.5143333333333 288.175 287.695 273.992 C 283.87566666666663 259.809 294.02233333333334 246.851 298.145 237.95833333333334 C 302.2676666666666 229.06566666666666 300.36633333333333 224.23833333333334 294.3041666666667 223.0246666666667 C 288.24199999999996 221.811 278.019 224.211 269.2221666666666 223.2035 C 260.4253333333333 222.196 253.05466666666666 217.78100000000003 250.672 212.37300000000002 C 248.2893333333333 206.965 250.89466666666667 200.564 257.29833333333335 196.7011666666667 C 263.702 192.83833333333334 273.904 191.51366666666664 284.0373333333333 189.24766666666665 C 294.17066666666665 186.98166666666665 304.23533333333336 183.77433333333332 312.6831666666667 185.8475" bx:d="M 314.3 180.567 U 334.793 202.628 U 370.168 227.399 U 350.963 255.916 U 343.987 299.933 U 327.085 318.991 U 273.729 272.767 U 304.169 233.893 U 298.465 219.411 U 267.796 226.611 U 245.684 213.366 U 253.5 194.163 U 284.106 190.189 Z 1@34ddf4d6"/>
    <path style="stroke-width: 0px; stroke: rgb(199, 36, 36); fill: rgb(199, 36, 36);" d="M 266.3256666666667 262.59366666666665 C 273.31800000000004 257.9313333333333 286.779 256.77566666666667 291.65633333333335 260.88283333333334 C 296.53366666666665 264.99 292.82733333333334 274.36 300.847 274.96683333333334 C 308.8666666666666 275.57366666666667 328.6123333333333 267.4173333333334 337.4345 272.73966666666666 C 346.25666666666666 278.062 344.1553333333333 296.863 333.65799999999996 312.9961666666666 C 323.16066666666666 329.1293333333333 304.26733333333334 342.5946666666667 290.30600000000004 337.24966666666666 C 276.3446666666667 331.9046666666666 267.31533333333334 307.74933333333337 263.0625 291.58716666666663 C 258.8096666666667 275.425 259.3333333333333 267.25600000000003 266.3256666666667 262.59366666666665" bx:d="M 259.857 259.087 U 300.24 255.62 U 289.121 283.73 U 348.358 259.261 U 342.054 315.664 U 285.374 356.06 U 258.286 283.594 Z 1@37f49e84"/>
  </g>
</svg>