<?xml version="1.0" encoding="utf-8"?>
<svg xmlns="http://www.w3.org/2000/svg" viewBox="0 0 500 500" xmlns:bx="https://boxy-svg.com">
  <defs>
    <bx:export>
      <bx:file format="svg" href="#object-0"/>
      <bx:file format="svg" href="#object-1" path="Untitled 2.svg"/>
      <bx:file format="svg" href="#object-2" path="Untitled 3.svg"/>
      <bx:file format="svg" href="#object-3" path="Untitled 4.svg"/>
    </bx:export>
  </defs>
  <ellipse style="paint-order: fill; fill-rule: nonzero; stroke-width: 3px; vector-effect: non-scaling-stroke; stroke-linecap: round; stroke: rgb(164, 142, 246); fill: rgb(249, 139, 84);" cx="250" cy="250" rx="245" ry="245" id="object-0"/>
  <ellipse style="fill-rule: nonzero; paint-order: fill; stroke-width: 11.308; fill: rgb(255, 162, 111); stroke: rgb(218, 100, 41);" cx="250" cy="251.02" rx="197.885" ry="197.885" id="object-1"/>
  <path style="fill: rgb(216, 216, 216); fill-opacity: 0; stroke-linecap: round; stroke-width: 18.846; stroke: rgb(253, 218, 185);" d="M 38.399 234.744 L 39.101333333333336 225.71233333333336 C 39.803666666666665 216.68066666666667 41.208333333333336 198.61733333333333 48.834833333333336 177.543 C 56.461333333333336 156.46866666666668 70.30966666666667 132.38333333333333 87.57033333333334 112.01216666666666 C 104.831 91.641 125.504 74.984 143.46716666666666 64.54783333333333 C 161.43033333333332 54.11166666666666 176.68366666666668 49.89633333333333 184.31033333333335 47.788666666666664 L 191.937 45.681" bx:d="M 38.399 234.744 U 42.613 180.554 U 84.158 108.298 U 146.177 58.327 U 191.937 45.681 1@1d6d8769" id="object-2"/>
  <path style="stroke-linecap: round; stroke-width: 18.846; fill-opacity: 0; fill: rgb(167, 168, 95); transform-origin: 359.62px 341.92px; stroke: rgb(253, 216, 185);" d="M 291.282 390.091 L 292.98766666666666 383.769 C 294.6933333333333 377.44699999999995 298.1046666666667 364.80300000000005 305.43 350.3521666666666 C 312.75533333333334 335.9013333333333 323.99466666666666 319.64366666666666 338.4455 305.1931666666667 C 352.8963333333333 290.7426666666667 370.5586666666666 278.09933333333333 387.7193333333333 269.7701666666667 C 404.87999999999994 261.44100000000003 421.539 257.426 429.8685 255.4185 L 438.198 253.411" bx:d="M 291.282 390.091 U 301.516 352.159 U 335.234 303.386 U 388.221 265.456 U 438.198 253.411 1@d16c9197" id="object-3" transform="matrix(-1, 0, 0, -1, 0.000031, -0.000023)"/>
  <ellipse style="stroke: rgb(0, 0, 0); stroke-width: 0; stroke-opacity: 0.23; fill: rgb(242, 85, 35); transform-origin: 285.26px 258.433px;" cx="261.292" cy="305.23" rx="80.305" ry="84.579" transform="matrix(0.861019, -0.508573, 0.575416, 0.821537, -41.35038, -6.61188)"/>
  <path style="stroke-width: 0; stroke: rgb(199, 36, 36); fill: rgb(242, 85, 35); transform-origin: 243.91px 251.821px;" d="M 153.246 276.79416666666674 C 154.57466666666667 268.85533333333336 156.70833333333334 261.1466666666667 158.18033333333335 255.74516666666668 C 159.65233333333333 250.34366666666665 160.46266666666668 247.24933333333334 165.79716666666664 257.44716666666665 C 171.13166666666666 267.645 180.99033333333333 291.135 195.05266666666668 304.62016666666665 C 209.115 318.10533333333336 227.381 321.58566666666667 225.2325 331.38216666666665 C 223.08399999999997 341.17866666666663 200.521 357.29133333333334 184.72483333333335 353.2921666666667 C 168.92866666666666 349.29299999999995 159.89933333333332 325.182 155.6465 309.04200000000003 C 151.3936666666667 292.90200000000004 151.91733333333335 284.733 153.246 276.79416666666674" bx:d="M 152.441 276.564 U 158.842 253.438 U 161.273 244.155 U 190.849 314.625 U 245.647 325.066 U 177.958 373.404 U 150.87 301.071 Z 1@a0ba1a89" transform="matrix(0.977848, -0.209317, 0.209317, 0.977848, 0, 0.000001)"/>
  <path style="stroke: rgb(255, 162, 111); fill: rgb(242, 85, 35); transform-origin: 243.91px 251.821px; stroke-width: 0px;" d="M 166.56516666666667 297.89483333333334 C 158.032 288.9666666666667 147.816 271.6123333333333 148.981 259.96933333333334 C 150.146 248.32633333333334 162.692 242.39466666666667 169.29983333333334 242.61166666666665 C 175.90766666666664 242.82866666666666 176.5773333333333 249.19433333333333 179.42483333333337 255.98499999999999 C 182.27233333333334 262.77566666666667 187.2976666666667 269.99133333333333 191.90083333333334 278.1381666666667 C 196.50400000000002 286.285 200.68500000000003 295.363 200.09766666666667 300.46633333333335 C 199.51033333333336 305.56966666666665 194.15466666666669 306.6983333333333 188.05166666666665 307.0116666666667 C 181.94866666666667 307.325 175.09833333333333 306.82300000000004 166.56516666666667 297.89483333333334" bx:d="M 168.248 306.321 U 137.6 254.258 U 175.238 236.463 U 177.247 255.56 U 192.323 277.207 U 204.866 304.441 U 188.799 307.827 Z 1@9b00cfbe" transform="matrix(0.977848, -0.209317, 0.209317, 0.977848, 0, 0.000001)"/>
  <path style="stroke: rgb(255, 111, 111); stroke-width: 0px; fill: rgb(242, 85, 35); transform-origin: 243.91px 251.821px;" d="M 254.21933333333334 233.51116666666667 C 251.48633333333336 216.33866666666665 247.92566666666667 196.8273333333333 242.64466666666667 180.144 C 237.36366666666666 163.46066666666667 230.36233333333334 149.60533333333333 224.6833333333333 135.47016666666667 C 219.0043333333333 121.335 214.64766666666665 106.92 209.20400000000004 102.22383333333333 C 203.7603333333333 97.52766666666666 197.2296666666667 102.55033333333331 194.01383333333334 112.16083333333334 C 190.798 121.77133333333332 190.89700000000002 135.96966666666665 193.74316666666667 149.712 C 196.58933333333334 163.45433333333332 202.18266666666668 176.74066666666667 205.81766666666667 195.7505 C 209.4526666666667 214.7603333333333 211.12933333333334 239.49366666666666 219.9605 254.5476666666667 C 228.79166666666666 269.60166666666663 244.77733333333333 274.97633333333334 251.8175 270.2468333333333 C 258.85766666666666 265.51733333333334 256.95233333333334 250.68366666666665 254.21933333333334 233.51116666666667" bx:d="M 255.047 235.85 U 244.365 177.316 U 223.361 135.75 U 210.291 92.505 U 190.699 107.573 U 190.996 150.168 U 207.776 190.027 U 212.806 264.227 U 260.763 280.351 Z 1@99aab693" transform="matrix(0.978646, -0.205555, 0.205555, 0.978646, 0, 0.000001)"/>
  <path style="stroke-width: 1; fill: rgb(242, 85, 35); paint-order: fill; stroke: rgb(255, 162, 111); transform-origin: 243.91px 251.821px;" d="M 226.33 295.1211666666666 C 227.57633333333334 287.776 222.24966666666668 273.687 219.095 261.2078333333333 C 215.94033333333334 248.72866666666667 214.95766666666668 237.85933333333332 210.98799999999997 226.74966666666668 C 207.01833333333332 215.64000000000001 200.06166666666664 204.29 191.41466666666668 203.44299999999998 C 182.76766666666666 202.596 172.43033333333332 212.25199999999998 170.4915 223.9143333333333 C 168.55266666666668 235.57666666666668 175.01233333333334 249.24533333333332 179.97733333333335 260.9675 C 184.94233333333332 272.68966666666665 188.4126666666667 282.4653333333333 193.07483333333334 289.25783333333334 C 197.737 296.0503333333333 203.591 299.85966666666667 210.42766666666668 301.46366666666665 C 217.26433333333333 303.06766666666664 225.08366666666666 302.46633333333335 226.33 295.1211666666666" bx:d="M 232.903 301.865 U 216.923 259.598 U 213.975 226.99 U 193.105 192.94 U 162.093 221.908 U 181.472 262.914 U 191.883 292.241 U 209.445 303.669 Z 1@45a24fd6" transform="matrix(0.977848, -0.209317, 0.209317, 0.977848, 0, 0.000001)"/>
  <path style="stroke-width: 0px; stroke: rgb(242, 85, 35); fill: rgb(242, 85, 35); transform-origin: 243.91px 251.821px;" d="M 300.9816666666666 202.44583333333333 C 302.8093333333333 178.13266666666667 303.1186666666667 161.16533333333334 301.9771666666667 143.18683333333334 C 300.83566666666667 125.20833333333333 298.24333333333334 106.21866666666666 292.8645 98.71100000000001 C 287.48566666666665 91.20333333333333 279.32033333333334 95.17766666666667 272.76616666666666 104.70933333333333 C 266.212 114.241 261.269 129.33 260.1413333333333 144.51700000000002 C 259.01366666666667 159.704 261.70133333333337 174.989 262.2245 187.6715 C 262.74766666666665 200.354 261.10633333333334 210.434 258.76899999999995 222.9868333333333 C 256.4316666666667 235.53966666666668 253.3983333333333 250.56533333333334 258.8978333333333 262.1591666666667 C 264.39733333333334 273.753 278.42966666666666 281.915 287.1188333333333 270.1665 C 295.808 258.418 299.154 226.75900000000001 300.9816666666666 202.44583333333333" bx:d="M 302.5 195.1 U 303.428 144.198 U 295.651 87.229 U 271.155 99.152 U 256.326 144.419 U 264.389 190.274 U 259.465 220.514 U 250.365 265.591 U 292.462 290.077 Z 1@e9d7002b" transform="matrix(0.996025, -0.089072, 0.089072, 0.996025, 0, 0)"/>
  <path style="stroke-width: 1; fill: rgb(242, 85, 35); stroke: rgb(255, 162, 111); transform-origin: 243.91px 251.821px;" d="M 303.9381666666667 218.4585 C 312.386 220.53166666666667 319.21700000000004 227.8853333333333 328.52833333333336 235.69066666666666 C 337.8396666666667 243.496 349.6313333333333 251.75300000000001 352.32633333333337 260.63433333333336 C 355.02133333333336 269.5156666666667 348.61966666666666 279.0213333333333 344.25616666666673 291.1103333333333 C 339.8926666666667 303.1993333333333 337.56733333333335 317.87166666666667 333.5876666666667 328.38416666666666 C 329.608 338.89666666666665 323.974 345.24933333333337 312.2643333333333 340.72166666666664 C 300.55466666666666 336.19399999999996 282.76933333333335 320.786 278.95 306.603 C 275.1306666666666 292.42 285.2773333333333 279.462 289.4 270.5693333333333 C 293.5226666666667 261.6766666666667 291.6213333333333 256.84933333333333 285.55916666666667 255.63566666666668 C 279.497 254.422 269.274 256.82199999999995 260.4771666666667 255.81449999999998 C 251.68033333333332 254.807 244.30966666666666 250.39199999999997 241.927 244.984 C 239.54433333333336 239.57600000000002 242.14966666666666 233.17499999999998 248.55333333333337 229.31216666666668 C 254.957 225.44933333333333 265.159 224.12466666666668 275.2923333333334 221.85866666666666 C 285.4256666666667 219.59266666666667 295.49033333333335 216.3853333333333 303.9381666666667 218.4585" bx:d="M 305.555 213.178 U 326.048 235.239 U 361.423 260.01 U 342.218 288.527 U 335.242 332.544 U 318.34 351.602 U 264.984 305.378 U 295.424 266.504 U 289.72 252.022 U 259.051 259.222 U 236.939 245.977 U 244.755 226.774 U 275.361 222.8 Z 1@d26df2ea" transform="matrix(0.999951, -0.00994, 0.00994, 0.999951, 0, 0)"/>
  <path style="stroke-width: 0; stroke: rgb(199, 36, 36); fill: rgb(242, 85, 35); transform-origin: 243.91px 251.821px;" d="M 248.72266666666667 294.31166666666667 C 255.715 289.64933333333335 269.176 288.4936666666667 274.05333333333334 292.60083333333336 C 278.93066666666664 296.708 275.22433333333333 306.078 283.24399999999997 306.6848333333333 C 291.26366666666667 307.2916666666667 311.00933333333336 299.13533333333334 319.8315 304.4576666666667 C 328.65366666666665 309.78 326.55233333333337 328.58099999999996 316.055 344.71416666666664 C 305.55766666666665 360.8473333333333 286.66433333333333 374.3126666666667 272.70300000000003 368.9676666666667 C 258.7416666666667 363.62266666666665 249.7123333333333 339.46733333333333 245.45949999999996 323.3051666666667 C 241.20666666666668 307.14300000000003 241.73033333333333 298.974 248.72266666666667 294.31166666666667" bx:d="M 242.254 290.805 U 282.637 287.338 U 271.518 315.448 U 330.755 290.979 U 324.451 347.382 U 267.771 387.778 U 240.683 315.312 Z 1@b483343f" transform="matrix(0.977848, -0.209317, 0.209317, 0.977848, 0, 0.000001)"/>
  <ellipse style="stroke: rgb(0, 0, 0); stroke-width: 0; stroke-opacity: 0.23; transform-origin: 285.26px 258.433px; fill: rgb(255, 109, 62);" cx="261.292" cy="305.23" rx="80.305" ry="84.579" transform="matrix(0.861019, -0.508573, 0.575416, 0.821537, -29.802009, -8.921573)"/>
  <path style="stroke-width: 0; stroke: rgb(199, 36, 36); transform-origin: 255.458px 249.511px; fill: rgb(255, 109, 62);" d="M 164.794 274.4841666666667 C 166.12266666666667 266.5453333333333 168.25633333333334 258.83666666666664 169.72833333333332 253.43516666666667 C 171.20033333333333 248.03366666666668 172.01066666666665 244.93933333333334 177.34516666666664 255.13716666666667 C 182.67966666666666 265.335 192.53833333333333 288.825 206.60066666666668 302.31016666666665 C 220.663 315.7953333333333 238.929 319.27566666666667 236.7805 329.07216666666665 C 234.63199999999998 338.8686666666667 212.069 354.98133333333334 196.27283333333335 350.98216666666667 C 180.4766666666667 346.983 171.44733333333332 322.872 167.1945 306.732 C 162.9416666666667 290.59200000000004 163.46533333333335 282.423 164.794 274.4841666666667" bx:d="M 163.989 274.254 U 170.39 251.128 U 172.821 241.845 U 202.397 312.315 U 257.195 322.756 U 189.506 371.094 U 162.418 298.761 Z 1@3fa89da6" transform="matrix(0.977848, -0.209317, 0.209317, 0.977848, 0.000001, 0.000006)"/>
  <path style="stroke-width: 1; stroke: rgb(255, 162, 111); transform-origin: 255.458px 249.511px; fill: rgb(255, 109, 62);" d="M 178.11316666666664 295.5848333333334 C 169.58 286.6566666666667 159.364 269.30233333333337 160.529 257.65933333333334 C 161.694 246.01633333333334 174.24 240.08466666666666 180.84783333333334 240.30166666666665 C 187.45566666666664 240.5186666666667 188.12533333333332 246.88433333333333 190.97283333333334 253.67499999999998 C 193.82033333333334 260.46566666666666 198.8456666666667 267.6813333333333 203.44883333333334 275.8281666666667 C 208.052 283.97499999999997 212.23299999999998 293.05299999999994 211.64566666666667 298.1563333333333 C 211.0583333333333 303.25966666666665 205.70266666666666 304.3883333333333 199.59966666666665 304.70166666666665 C 193.49666666666667 305.01500000000004 186.64633333333333 304.513 178.11316666666664 295.5848333333334" bx:d="M 179.796 304.011 U 149.148 251.948 U 186.786 234.153 U 188.795 253.25 U 203.871 274.897 U 216.414 302.131 U 200.347 305.517 Z 1@6252d133" transform="matrix(0.977848, -0.209317, 0.209317, 0.977848, 0.000001, 0.000006)"/>
  <path style="stroke: rgb(255, 111, 111); stroke-width: 0; transform-origin: 255.458px 249.511px; fill: rgb(255, 109, 62);" d="M 265.76733333333334 231.2011666666667 C 263.03433333333334 214.02866666666668 259.4736666666667 194.51733333333334 254.19266666666667 177.83399999999997 C 248.91166666666666 161.15066666666667 241.91033333333334 147.29533333333333 236.2313333333333 133.16016666666667 C 230.5523333333333 119.02499999999999 226.19566666666665 104.61 220.75199999999998 99.91383333333333 C 215.3083333333333 95.21766666666667 208.7776666666667 100.24033333333334 205.56183333333334 109.85083333333334 C 202.346 119.46133333333334 202.44500000000002 133.65966666666668 205.29116666666667 147.40200000000002 C 208.13733333333334 161.14433333333332 213.73066666666668 174.43066666666667 217.3656666666667 193.44050000000001 C 221.0006666666667 212.45033333333333 222.67733333333334 237.18366666666665 231.5085 252.23766666666666 C 240.33966666666666 267.2916666666667 256.32533333333333 272.66633333333334 263.3655 267.9368333333333 C 270.40566666666666 263.20733333333334 268.50033333333334 248.37366666666665 265.76733333333334 231.2011666666667" bx:d="M 266.595 233.54 U 255.913 175.006 U 234.909 133.44 U 221.839 90.195 U 202.247 105.263 U 202.544 147.858 U 219.324 187.717 U 224.354 261.917 U 272.311 278.041 Z 1@57ddb27f" transform="matrix(0.978646, -0.205555, 0.205555, 0.978646, 0.000001, 0.000006)"/>
  <path style="stroke-width: 1; paint-order: fill; stroke: rgb(255, 162, 111); transform-origin: 255.458px 249.511px; fill: rgb(255, 109, 62);" d="M 237.87800000000001 292.8111666666667 C 239.12433333333334 285.466 233.7976666666667 271.377 230.643 258.8978333333334 C 227.48833333333334 246.4186666666667 226.50566666666668 235.54933333333335 222.53600000000003 224.43966666666665 C 218.56633333333332 213.33 211.60966666666664 201.98000000000002 202.96266666666668 201.133 C 194.31566666666666 200.28599999999997 183.97833333333332 209.942 182.0395 221.60433333333333 C 180.10066666666668 233.26666666666665 186.56033333333335 246.93533333333335 191.52533333333335 258.65749999999997 C 196.49033333333333 270.37966666666665 199.9606666666667 280.1553333333333 204.62283333333335 286.94783333333334 C 209.285 293.74033333333335 215.139 297.5496666666666 221.97566666666668 299.15366666666665 C 228.81233333333333 300.75766666666664 236.63166666666666 300.15633333333335 237.87800000000001 292.8111666666667" bx:d="M 244.451 299.555 U 228.471 257.288 U 225.523 224.68 U 204.653 190.63 U 173.641 219.598 U 193.02 260.604 U 203.431 289.931 U 220.993 301.359 Z 1@aa4e3b31" transform="matrix(0.977848, -0.209317, 0.209317, 0.977848, 0.000001, 0.000006)"/>
  <path style="stroke-width: 0; stroke: rgb(242, 85, 35); transform-origin: 255.458px 249.511px; fill: rgb(255, 109, 62);" d="M 312.5296666666666 200.1358333333333 C 314.3573333333333 175.82266666666666 314.6666666666667 158.85533333333333 313.5251666666667 140.87683333333334 C 312.38366666666667 122.89833333333333 309.79133333333334 103.90866666666666 304.41249999999997 96.401 C 299.03366666666665 88.89333333333333 290.86833333333334 92.86766666666666 284.31416666666667 102.39933333333333 C 277.76 111.931 272.817 127.02 271.6893333333333 142.207 C 270.56166666666667 157.394 273.24933333333337 172.679 273.7725 185.3615 C 274.29566666666665 198.044 272.65433333333334 208.12400000000002 270.317 220.67683333333332 C 267.9796666666667 233.2296666666667 264.9463333333333 248.25533333333337 270.4458333333333 259.8491666666667 C 275.94533333333334 271.443 289.97766666666666 279.605 298.66683333333333 267.8565 C 307.356 256.108 310.702 224.44899999999998 312.5296666666666 200.1358333333333" bx:d="M 314.048 192.79 U 314.976 141.888 U 307.199 84.919 U 282.703 96.842 U 267.874 142.109 U 275.937 187.964 U 271.013 218.204 U 261.913 263.281 U 304.01 287.767 Z 1@b3f785af" transform="matrix(0.996025, -0.089072, 0.089072, 0.996025, 0, 0.000003)"/>
  <path style="stroke-width: 1; stroke: rgb(255, 162, 111); transform-origin: 255.458px 249.511px; fill: rgb(255, 109, 62);" d="M 315.48616666666663 216.1485 C 323.934 218.22166666666666 330.76500000000004 225.57533333333333 340.07633333333337 233.38066666666668 C 349.3876666666667 241.186 361.1793333333333 249.44299999999998 363.87433333333337 258.3243333333333 C 366.56933333333336 267.2056666666667 360.1676666666667 276.71133333333336 355.80416666666673 288.8003333333333 C 351.4406666666667 300.8893333333333 349.11533333333335 315.56166666666667 345.13566666666674 326.0741666666666 C 341.156 336.58666666666664 335.522 342.9393333333333 323.8123333333333 338.41166666666663 C 312.10266666666666 333.88399999999996 294.31733333333335 318.47599999999994 290.498 304.29299999999995 C 286.67866666666663 290.10999999999996 296.8253333333333 277.152 300.948 268.25933333333336 C 305.0706666666667 259.3666666666667 303.1693333333333 254.5393333333333 297.1071666666666 253.32566666666665 C 291.045 252.112 280.82199999999995 254.51199999999997 272.0251666666667 253.50449999999998 C 263.2283333333333 252.49699999999999 255.85766666666666 248.082 253.475 242.67399999999998 C 251.09233333333336 237.266 253.69766666666666 230.865 260.10133333333334 227.00216666666665 C 266.505 223.13933333333333 276.707 221.81466666666665 286.8403333333333 219.54866666666666 C 296.9736666666667 217.28266666666664 307.03833333333336 214.07533333333333 315.48616666666663 216.1485" bx:d="M 317.103 210.868 U 337.596 232.929 U 372.971 257.7 U 353.766 286.217 U 346.79 330.234 U 329.888 349.292 U 276.532 303.068 U 306.972 264.194 U 301.268 249.712 U 270.599 256.912 U 248.487 243.667 U 256.303 224.464 U 286.909 220.49 Z 1@2ff71347" transform="matrix(0.999951, -0.00994, 0.00994, 0.999951, 0, 0)"/>
  <path style="stroke-width: 0; stroke: rgb(199, 36, 36); transform-origin: 255.458px 249.511px; fill: rgb(255, 109, 62);" d="M 260.2706666666666 292.00166666666667 C 267.263 287.33933333333334 280.724 286.1836666666667 285.60133333333334 290.2908333333333 C 290.47866666666664 294.39799999999997 286.77233333333334 303.768 294.792 304.3748333333333 C 302.81166666666667 304.9816666666666 322.55733333333336 296.8253333333333 331.3795 302.1476666666667 C 340.20166666666665 307.46999999999997 338.10033333333337 326.271 327.603 342.40416666666664 C 317.10566666666665 358.5373333333334 298.21233333333333 372.0026666666667 284.25100000000003 366.65766666666667 C 270.2896666666667 361.3126666666667 261.26033333333334 337.1573333333333 257.0075 320.99516666666665 C 252.75466666666668 304.833 253.27833333333334 296.664 260.2706666666666 292.00166666666667" bx:d="M 253.802 288.495 U 294.185 285.028 U 283.066 313.138 U 342.303 288.669 U 335.999 345.072 U 279.319 385.468 U 252.231 313.002 Z 1@a40e1177" transform="matrix(0.977848, -0.209317, 0.209317, 0.977848, 0.000001, 0.000006)"/>
</svg>