<?xml version="1.0" encoding="utf-8"?>
<svg xmlns="http://www.w3.org/2000/svg" viewBox="0 0 500 500" xmlns:bx="https://boxy-svg.com">
  <path style="stroke-width: 15px; stroke: rgb(52, 18, 4); fill: rgb(255, 234, 53);" d="M 72.63 344.395 C 86.271 365.20533333333333 104.459 390.4826666666666 121.28300000000002 404.6466666666666 C 138.107 418.8106666666667 153.56699999999998 421.8613333333333 172.77833333333334 419.35533333333336 C 191.98966666666664 416.84933333333333 214.9523333333333 408.78666666666663 238.14199999999997 379.47783333333336 C 261.33166666666665 350.16900000000004 284.74833333333333 299.614 287.81733333333335 258.75600000000003 C 290.88633333333337 217.898 273.6076666666667 186.737 251.44083333333333 191.09516666666664 C 229.274 195.45333333333335 202.21899999999997 235.3306666666667 185.96349999999998 256.90366666666665 C 169.708 278.4766666666667 164.25199999999998 281.74533333333335 152.65716666666665 263.00500000000005 C 141.06233333333333 244.26466666666667 123.32866666666666 203.51533333333336 103.09433333333332 179.3273333333333 C 82.86 155.13933333333333 60.125 147.51266666666666 43.64216666666667 146.968 C 27.159333333333336 146.42333333333332 16.92866666666667 152.96066666666664 12.268 166.58016666666666 C 7.607333333333334 180.19966666666664 8.516666666666667 200.90133333333333 14.2005 222.80133333333333 C 19.884333333333334 244.70133333333334 30.34266666666667 267.7996666666667 40.118833333333335 287.5205 C 49.895 307.24133333333333 58.989 323.5846666666667 72.63 344.395" bx:d="M 68.083 339.928 U 122.647 415.76 U 169.027 424.912 U 237.915 400.724 U 308.165 249.059 U 256.329 155.576 U 175.164 275.208 U 158.796 285.014 U 105.595 162.766 U 37.39 139.886 U 6.698 159.498 U 9.426 221.603 U 40.801 290.898 Z 1@34d00b6e"/>
  <path style="stroke-linecap: round; stroke-miterlimit: 1; stroke-width: 15px; stroke: rgb(52, 18, 4); fill: rgb(255, 234, 53);" d="M 393.0258333333333 111.64633333333335 C 374.5423333333333 116.06866666666667 359.4536666666666 121.71433333333334 344.83666666666664 130.37116666666668 C 330.2196666666667 139.028 316.0743333333333 150.696 308.0586666666666 164.33983333333333 C 300.04299999999995 177.98366666666666 298.157 193.60333333333335 297.11966666666666 210.44633333333334 C 296.08233333333334 227.28933333333336 295.89366666666666 245.35566666666668 298.53433333333334 259.18766666666664 C 301.175 273.01966666666664 306.645 282.6173333333333 315.41516666666666 287.79249999999996 C 324.18533333333335 292.9676666666667 336.2556666666667 293.7203333333334 348.51500000000004 294.0025 C 360.77433333333335 294.2846666666667 373.2226666666667 294.09633333333335 382.46433333333334 294.1906666666667 C 391.70599999999996 294.285 397.741 294.662 399.8155 297.67316666666665 C 401.89000000000004 300.6843333333333 400.00399999999996 306.3296666666667 395.8548333333333 312.16333333333336 C 391.7056666666667 317.997 385.2933333333333 324.019 369.92199999999997 329.00600000000003 C 354.5506666666667 333.993 330.2203333333333 337.945 309.0963333333333 344.814 C 287.9723333333333 351.683 270.05466666666666 361.469 256.75800000000004 373.23116666666664 C 243.46133333333333 384.99333333333334 234.78566666666666 398.73166666666674 237.52066666666667 408.32950000000005 C 240.25566666666668 417.92733333333337 254.40133333333335 423.38466666666665 268.82950000000005 427.61866666666657 C 283.2576666666667 431.85266666666666 297.9683333333333 434.8633333333334 314.75399999999996 433.64000000000004 C 331.5396666666666 432.4166666666667 350.4003333333333 426.9593333333334 367.2806666666667 419.3376666666666 C 384.16100000000006 411.71600000000007 399.061 401.93 415.28133333333335 392.14416666666665 C 431.5016666666667 382.35833333333335 449.0423333333333 372.57266666666663 461.8676666666667 354.22416666666663 C 474.69300000000004 335.87566666666663 482.80300000000005 308.96433333333334 486.19783333333334 288.73383333333334 C 489.5926666666667 268.50333333333333 488.27233333333334 254.95366666666666 483.27433333333335 241.2158333333333 C 478.2763333333333 227.47799999999998 469.6006666666667 213.552 454.7008333333333 209.69416666666666 C 439.801 205.83633333333333 418.67699999999996 212.04666666666665 400.0991666666667 215.71633333333332 C 381.52133333333336 219.386 365.48966666666666 220.51500000000001 359.64283333333333 214.49283333333335 C 353.796 208.4706666666667 358.134 195.29733333333334 371.43066666666664 190.21616666666668 C 384.7273333333333 185.135 406.9826666666666 188.146 422.92 180.90066666666667 C 438.8573333333334 173.65533333333335 448.4766666666667 156.15366666666668 456.77549999999997 142.698 C 465.0743333333333 129.24233333333333 472.05266666666665 119.83266666666667 471.5810000000001 113.52833333333335 C 471.1093333333333 107.224 463.1876666666667 104.02499999999999 448.28766666666667 104.02499999999999 C 433.3876666666667 104.02499999999999 411.50933333333336 107.224 393.0258333333333 111.64633333333335" bx:d="M 389.631 110.423 U 344.365 127.36 U 301.929 162.364 U 296.271 209.223 U 295.705 263.422 U 312.115 292.215 U 348.326 294.473 U 385.671 293.908 U 403.776 295.039 U 398.118 311.975 U 378.881 330.041 U 305.89 341.897 U 252.137 371.255 U 226.11 412.47 U 268.547 428.842 U 312.679 437.874 U 369.261 421.502 U 413.961 392.144 U 466.583 362.787 U 490.913 282.053 U 486.952 241.404 U 460.925 199.626 U 397.553 218.257 U 349.458 221.644 U 362.472 182.124 U 429.238 191.157 U 458.096 138.652 U 479.031 110.423 U 455.266 100.826 Z 1@65d7a349"/>
  <path style="fill: rgb(216, 216, 216); fill-opacity: 0; stroke-linecap: round; stroke-width: 26px; stroke: rgb(242, 231, 203);" d="M 75.602 187.205 L 73.05583333333333 185.32316666666668 C 70.50966666666666 183.44133333333335 65.41733333333333 179.67766666666668 60.13633333333334 176.6665 C 54.855333333333334 173.65533333333335 49.38566666666666 171.39666666666668 44.76466666666666 171.25016666666667 C 40.14366666666666 171.10366666666667 36.37133333333333 173.06933333333333 34.767999999999994 179.79216666666665 C 33.16466666666667 186.515 33.730333333333334 197.995 38.7285 214.55583333333334 C 43.72666666666667 231.11666666666665 53.157333333333334 252.75833333333333 62.022 271.10699999999997 C 70.88666666666667 289.4556666666667 79.18533333333333 304.5113333333333 83.33466666666666 312.0391666666667 L 87.484 319.567" bx:d="M 75.602 187.205 U 60.325 175.914 U 43.916 169.138 U 32.599 175.035 U 34.296 209.475 U 62.588 274.4 U 87.484 319.567 1@7b954640"/>
  <path style="stroke-linecap: round; stroke-width: 26px; fill-opacity: 0; fill: rgb(242, 231, 203); stroke: rgb(242, 231, 203);" d="M 374.354 140.91 L 371.1476666666667 142.3215 C 367.9413333333334 143.73299999999998 361.52866666666665 146.556 354.92766666666665 150.88466666666667 C 348.32666666666665 155.21333333333334 341.5373333333334 161.0476666666667 336.53933333333333 166.12883333333335 C 331.54133333333334 171.21 328.33466666666664 175.538 325.97700000000003 181.4656666666667 C 323.6193333333333 187.39333333333335 322.11066666666665 194.92066666666668 321.35616666666664 201.50733333333335 C 320.60166666666663 208.09400000000002 320.60133333333334 213.74 320.60116666666664 216.563 L 320.601 219.386" bx:d="M 374.354 140.91 U 355.116 149.379 U 334.748 166.882 U 325.128 179.866 U 320.602 202.448 U 320.601 219.386 1@e88ab7d6"/>
  <path style="fill: rgb(216, 216, 216); fill-opacity: 0; stroke-linecap: round; stroke-width: 26px; stroke: rgb(242, 231, 203);" d="M 266.85 397.791 L 268.3586666666667 396.0971666666667 C 269.86733333333336 394.40333333333336 272.88466666666665 391.0156666666667 276.3736666666667 388.0045 C 279.86266666666666 384.99333333333334 283.8233333333333 382.3586666666667 288.5385 379.724 C 293.2536666666667 377.08933333333334 298.7233333333333 374.4546666666667 305.41900000000004 371.91416666666663 C 312.11466666666666 369.3736666666667 320.03633333333335 366.9273333333333 323.9971666666667 365.70416666666665 L 327.958 364.481" bx:d="M 266.85 397.791 U 275.902 387.628 U 287.784 379.724 U 304.193 371.82 U 327.958 364.481 1@6f6b2348"/>
</svg>